<?xml version="1.0" standalone="no"?>
<svg viewBox="0 0 200 200" xmlns="http://www.w3.org/2000/svg">
  <path fill="#D0E2FF" d="M43.6,-74.4C57.9,-67.4,71.7,-58.4,79.1,-45.7C86.4,-32.9,87.3,-16.5,85.5,-1C83.7,14.4,79.2,28.8,72.1,41.9C65,55.1,55.3,67,42.8,75.5C30.4,84.1,15.2,89.3,1.2,87.2C-12.7,85,-25.4,75.5,-37.1,66.5C-48.9,57.5,-59.7,49.1,-69,38.1C-78.4,27.1,-86.4,13.6,-89,-1.5C-91.6,-16.6,-88.9,-33.2,-79.9,-44.8C-70.9,-56.5,-55.6,-63.1,-41.2,-70.1C-26.9,-77,-13.4,-84.3,0.6,-85.4C14.7,-86.5,29.4,-81.4,43.6,-74.4Z" transform="translate(100 100)" />
</svg>
